<svg xmlns="http://www.w3.org/2000/svg" xmlns:xlink="http://www.w3.org/1999/xlink" version="1.1" width="1440" height="900" viewBox="0 0 1440 900" xml:space="preserve"><desc>Created with Fabric.js 4.6.0</desc><defs></defs><g transform="matrix(1 0 0 1 658.55 427.45)" id="YZOLAjW8gPQSevsY1GPoL"><filter id="SVGID_0" y="-22%" height="144%" x="-27%" width="154%"><feGaussianBlur in="SourceAlpha" stdDeviation="0"></feGaussianBlur><feOffset dx="66" dy="4" result="oBlur"></feOffset><feFlood flood-color="rgb(0,0,0)" flood-opacity="1"></feFlood><feComposite in2="oBlur" operator="in"></feComposite><feMerge><feMergeNode></feMergeNode><feMergeNode in="SourceGraphic"></feMergeNode></feMerge></filter><path style="stroke: rgb(0,0,0); stroke-width: 1; stroke-dasharray: none; stroke-linecap: butt; stroke-dashoffset: 0; stroke-linejoin: miter; stroke-miterlimit: 4; fill: none; fill-rule: nonzero; opacity: 1;filter: url(#SVGID_0);" vector-effect="non-scaling-stroke" transform=" translate(0, 0)" d="M -453.73204 -113.31 L 453.73204 -113.31 L 453.73204 -113.31 L 453.73204 -113.31 C 453.73204 11.848770000000002 352.27081 113.31 227.11203999999998 113.31 L -345.57061 113.31 z" stroke-linecap="round"></path></g><g transform="matrix(1 0 0 1 964.57 530.42)" id="EfmRLdUgoq9-bOVo4DVqD"><path style="stroke: rgb(0,0,0); stroke-width: 1; stroke-dasharray: none; stroke-linecap: round; stroke-dashoffset: 0; stroke-linejoin: round; stroke-miterlimit: 10; fill: none; fill-rule: nonzero; opacity: 1;" vector-effect="non-scaling-stroke" transform=" translate(-964.57, -530.42)" d="M 954.0807174887891 532.8384662888566 Q 954.0807174887891 532.8374662888566 954.8878923766815 532.8374662888566 Q 955.6950672645739 532.8374662888566 955.6950672645739 532.030606826868 Q 955.6950672645739 531.2237473648794 956.5022421524664 531.2237473648794 Q 957.3094170403588 531.2237473648794 958.1165919282511 531.2237473648794 Q 958.9237668161434 531.2237473648794 960.5381165919282 529.6100284409024 Q 962.152466367713 527.9963095169253 962.9596412556053 527.9963095169253 Q 963.7668161434976 527.9963095169253 964.57399103139 527.9963095169253 Q 965.3811659192825 527.9963095169253 966.9955156950672 527.9963095169253 Q 968.6098654708519 527.9963095169253 969.4170403587443 527.9963095169253 Q 970.2242152466367 527.9963095169253 972.6457399103139 527.9963095169253 L 975.068264573991 527.9963095169253" stroke-linecap="round"></path></g><g transform="matrix(1 0 0 1 606.19 268.99)" id="Gxkl0MmhETyi2Nwn903XD"><path style="stroke: rgb(0,0,0); stroke-width: 1; stroke-dasharray: none; stroke-linecap: round; stroke-dashoffset: 0; stroke-linejoin: round; stroke-miterlimit: 10; fill: none; fill-rule: nonzero; opacity: 1;" vector-effect="non-scaling-stroke" transform=" translate(-606.19, -268.99)" d="M 606.9945156950672 268.1875627566121 Q 606.9955156950672 268.1875627566121 606.1883408071749 268.9944222186007 L 605.3821659192824 269.8012816805892" stroke-linecap="round"></path></g><g transform="matrix(0.69 0 0 0.69 1119.75 421.75)" id="MPA4RralJe3uWdo8oXsB8"><path style="stroke: none; stroke-width: 1; stroke-dasharray: none; stroke-linecap: butt; stroke-dashoffset: 0; stroke-linejoin: miter; stroke-miterlimit: 4; fill: rgb(179,181,179); fill-rule: nonzero; opacity: 1;" vector-effect="non-scaling-stroke" transform=" translate(-40, -40)" d="M 63.366 80 L 40 56.634 L 16.634 80 L 0 63.366 L 23.366 40 L 0 16.634 L 16.634 0 L 40 23.366 L 63.366 0 L 80 16.634 L 56.634 40 L 80 63.366 L 63.366 80 z" stroke-linecap="round"></path></g><g transform="matrix(0.73 0 0 0.73 1142.56 356.72)" id="SM2n5OM2YALV2Ss-rXXjG"><path style="stroke: none; stroke-width: 1; stroke-dasharray: none; stroke-linecap: butt; stroke-dashoffset: 0; stroke-linejoin: miter; stroke-miterlimit: 4; fill: rgb(179,181,179); fill-rule: nonzero; opacity: 1;" vector-effect="non-scaling-stroke" transform=" translate(0, 0)" d="M 23.366 40 L 0 16.634 L -23.366 40 L -40 23.366 L -16.634 0 L -40 -23.366 L -23.366 -40 L 0 -16.634 L 23.366 -40 L 40 -23.366 L 16.634 0 L 40 23.366 z" stroke-linecap="round"></path></g><g transform="matrix(1 0 0 1 374.53 111.79)" id="0j9OgveMJY5EgjtZn-XKW"><path style="stroke: rgb(0,0,0); stroke-width: 1; stroke-dasharray: none; stroke-linecap: butt; stroke-dashoffset: 0; stroke-linejoin: miter; stroke-miterlimit: 4; fill: rgb(255,255,255); fill-opacity: 0; fill-rule: nonzero; opacity: 1;" vector-effect="non-scaling-stroke" transform=" translate(0, 0)" d="M 0 0" stroke-linecap="round"></path></g><g transform="matrix(0.24 0 0 0.24 254.26 288.36)" id="L05Mo6AWTCsz2TYmagmZG"><g vector-effect="non-scaling-stroke"><g transform="matrix(1 0 0 1 1.63 -99.08)" id="Zc-9W7246h-rMOPMTJnUg"><path style="stroke: none; stroke-width: 1; stroke-dasharray: none; stroke-linecap: butt; stroke-dashoffset: 0; stroke-linejoin: miter; stroke-miterlimit: 4; fill: rgb(89,206,234); fill-rule: nonzero; opacity: 1;" vector-effect="non-scaling-stroke" transform=" translate(-301.63, -200.92)" d="M 560.076 101.287 L 558.672 171.52300000000002 L 430.982 300.557 L 395.307 264.882 L 546.707 113.48000000000002 L 560.076 101.287 z M 43.188 103.199 L 44.554 171.522 L 170.73 299.025 L 204.873 264.883 L 43.188 103.199 z" stroke-linecap="round"></path></g><g transform="matrix(1 0 0 1 0.09 177.19)" id="9Wqu26hGQfMOvcbsqRSl-"><path style="stroke: none; stroke-width: 1; stroke-dasharray: none; stroke-linecap: butt; stroke-dashoffset: 0; stroke-linejoin: miter; stroke-miterlimit: 4; fill: rgb(175,229,90); fill-rule: nonzero; opacity: 1;" vector-effect="non-scaling-stroke" transform=" translate(-300.09, -477.19)" d="M 464.031 524.04 L 559.246 428.82199999999995 L 559.246 499.05699999999996 L 464.03099999999995 594.2769999999999 L 300.09 430.335 L 136.15 594.275 L 40.93100000000001 499.05699999999996 L 40.93100000000001 428.82199999999995 L 136.15 524.039 L 300.09 360.1 L 464.031 524.04 z" stroke-linecap="round"></path></g><g transform="matrix(1 0 0 1 0.09 -35.12)" id="_HufJWckp2Tpaa3kUAdLs"><path style="stroke: none; stroke-width: 1; stroke-dasharray: none; stroke-linecap: butt; stroke-dashoffset: 0; stroke-linejoin: miter; stroke-miterlimit: 4; fill: rgb(231,50,163); fill-rule: nonzero; opacity: 1;" vector-effect="non-scaling-stroke" transform=" translate(-300.09, -264.88)" d="M 559.246 428.822 L 395.307 264.882 L 559.246 100.94 L 464.03099999999995 5.722999999999999 L 300.0899999999999 169.66500000000002 L 136.14599999999993 5.723000000000013 L 40.93199999999993 100.94200000000001 L 204.87299999999993 264.88300000000004 L 40.93199999999993 428.822 L 136.14999999999992 524.039 L 300.0899999999999 360.1 L 464.03099999999995 524.04 z" stroke-linecap="round"></path></g><g transform="matrix(1 0 0 1 0 0)" id="t8eD8RpUJgiOvRr5xza3m"><path style="stroke: none; stroke-width: 1; stroke-dasharray: none; stroke-linecap: butt; stroke-dashoffset: 0; stroke-linejoin: miter; stroke-miterlimit: 4; fill: rgb(29,26,28); fill-rule: nonzero; opacity: 1;" vector-effect="non-scaling-stroke" transform=" translate(-300, -300)" d="M 563.293 175.224 C 564.367 174.15099999999998 564.969 172.695 564.969 171.178 L 564.969 100.94 C 564.969 99.432 564.3580000000001 97.957 563.2890000000001 96.89 L 468.078 1.676 C 467.004 0.603 465.549 0 464.031 0 C 462.51300000000003 0 461.058 0.603 459.984 1.676 L 300.09 161.571 L 140.193 1.676 C 139.121 0.603 137.666 0 136.146 0 C 134.628 0 133.17299999999997 0.603 132.101 1.676 C 128.945 4.832 40.037000000000006 92.997 36.902 97.134 C 34.316 100.548 35.166000000000004 104.429 35.158 108.54 C 35.148 114.07600000000001 35.209 168.317 35.209 171.178 C 35.209 172.696 35.813 174.151 36.887 175.225 L 161.662 300.001 C 161.662 300.001 37.262 424.4 36.900000000000006 424.76199999999994 C 34.379000000000005 427.28399999999993 35.150000000000006 432.72099999999995 35.129000000000005 435.91599999999994 C 35.09 441.43799999999993 35.129000000000005 496.1549999999999 35.129000000000005 499.05799999999994 C 35.129000000000005 500.5759999999999 35.813 502.0319999999999 36.88700000000001 503.1039999999999 C 40.03300000000001 506.25199999999995 128.37900000000002 595.068 132.907 598.7209999999999 C 133.942 599.5559999999999 134.764 599.9979999999999 136.151 599.9979999999999 C 137.24300000000002 599.9979999999999 138.346 599.6669999999999 139.262 599.074 C 139.28 599.063 139.295 599.054 139.313 599.043 C 139.637 598.828 300.09 438.429 300.09 438.429 C 300.09 438.429 347.381 485.717 354.426 492.76399999999995 C 362.065 500.40299999999996 457.623 595.9499999999999 459.674 597.953 C 460.887 599.139 462.256 599.986 463.99199999999996 599.996 C 464.00399999999996 599.996 464.01699999999994 600 464.03099999999995 600 C 464.04499999999996 600 464.05799999999994 599.996 464.07199999999995 599.996 C 467.26899999999995 599.978 469.14799999999997 597.197 471.25199999999995 595.206 C 473.63499999999993 592.95 543.963 522.431 551.752 514.628 C 555.4689999999999 510.903 563.17 503.22700000000003 563.293 503.10400000000004 C 564.367 502.03200000000004 564.969 500.576 564.969 499.05800000000005 L 564.969 428.82300000000004 C 564.969 427.30500000000006 564.3580000000001 425.833 563.279 424.76300000000003 L 438.518 299.999 L 563.293 175.224 z M 403.4 264.882 L 444.85499999999996 223.425 L 444.85499999999996 277.475 L 430.42299999999994 291.906 L 403.4 264.882 z M 519.307 148.974 L 519.307 203.02499999999998 L 488.247 234.08599999999998 L 488.247 180.03499999999997 L 519.307 148.974 z M 481.379 240.953 L 451.723 270.608 L 451.723 216.55700000000002 L 481.379 186.90200000000002 L 481.379 240.953 z M 526.174 196.157 L 526.174 142.106 L 553.524 114.756 L 553.524 168.808 L 526.174 196.157 z M 46.654 114.757 L 74.006 142.108 L 74.006 196.159 L 46.653999999999996 168.808 L 46.653999999999996 114.757 z M 148.455 216.559 L 148.455 270.61 L 118.80100000000002 240.955 L 118.80100000000002 186.904 L 148.455 216.559 z M 111.934 234.087 L 80.87299999999999 203.02599999999998 L 80.87299999999999 148.97499999999997 L 111.934 180.03599999999997 L 111.934 234.087 z M 155.322 277.477 L 155.322 223.426 L 196.779 264.884 L 169.754 291.909 L 155.322 277.477 z M 458.309 526.41 L 458.309 580.461 L 304.523 426.678 L 305.55 373.654 L 458.309 526.41 z M 553.523 475.259 L 469.754 560.298 L 469.754 549.013 L 553.523 463.97400000000005 L 553.523 475.259 z M 553.523 454.188 L 469.754 539.227 L 469.754 526.41 L 553.523 442.638 L 553.523 454.188 z M 293.025 429.308 L 141.873 580.459 L 141.873 526.4079999999999 L 294.092 374.19 L 293.025 429.308 z M 46.654 463.271 L 130.427 548.313 L 130.427 559.598 L 46.653999999999996 474.5559999999999 L 46.653999999999996 463.271 z M 130.428 538.526 L 46.655 453.4839999999999 L 46.655 442.6359999999999 L 130.428 526.4079999999999 L 130.428 538.526 z M 46.654 484.342 L 130.427 569.385 L 130.427 580.459 L 46.653999999999996 496.68799999999993 L 46.653999999999996 484.342 z M 469.754 580.461 L 469.754 570.0840000000001 L 553.523 485.0450000000001 L 553.523 496.6880000000001 L 469.754 580.461 z M 464.031 515.946 L 304.135 356.053 C 304.123 356.04 304.106 356.032 304.094 356.019 C 303.11899999999997 355.045 301.664 354.42900000000003 300.199 354.378 C 300.172 354.377 300.144 354.38 300.09000000000003 354.377 C 300.076 354.377 300.06300000000005 354.38100000000003 300.04900000000004 354.38100000000003 C 298.42 354.37100000000004 296.951 355.067 295.91200000000003 356.184 L 136.15 515.945 L 49.025000000000006 428.82200000000006 L 208.92 268.93 C 209.994 267.857 210.59599999999998 266.401 210.59599999999998 264.884 C 210.59599999999998 263.36600000000004 209.99399999999997 261.911 208.92 260.837 L 49.025 100.942 L 136.146 13.815999999999988 L 296.042 173.711 C 298.27599999999995 175.94500000000002 301.90099999999995 175.94500000000002 304.13399999999996 173.711 L 464.031 13.816 L 551.152 100.94 L 391.26 260.835 C 389.026 263.07 389.026 266.693 391.26 268.928 L 551.152 428.822 L 464.031 515.946 z" stroke-linecap="round"></path></g></g></g><g transform="matrix(0.37 0 0 0.37 717.58 667.98)" id="9tduiDfMNAUQu2Dbmwc2s"><filter id="SVGID_304" y="-21%" height="142%" x="-20%" width="140%"><feGaussianBlur in="SourceAlpha" stdDeviation="0"></feGaussianBlur><feOffset dx="2" dy="5" result="oBlur"></feOffset><feFlood flood-color="rgb(0,0,0)" flood-opacity="1"></feFlood><feComposite in2="oBlur" operator="in"></feComposite><feMerge><feMergeNode></feMergeNode><feMergeNode in="SourceGraphic"></feMergeNode></feMerge></filter><g style="filter: url(#SVGID_304);" vector-effect="non-scaling-stroke"><g transform="matrix(1 0 0 1 -44.45 61.72)" id="KrZxRyQPyGcV9yDOrGgtT"><path style="stroke: none; stroke-width: 1; stroke-dasharray: none; stroke-linecap: butt; stroke-dashoffset: 0; stroke-linejoin: miter; stroke-miterlimit: 4; fill: rgb(59,194,228); fill-rule: nonzero; opacity: 1;" vector-effect="non-scaling-stroke" transform=" translate(-255.55, -361.72)" d="M 376.679 471.726 L 432.23299999999995 471.726 L 287.78799999999995 555.121 L 287.78799999999995 297.252 L 511.1089999999999 168.318 L 511.1089999999999 337.29600000000005 L 465.57 337.29600000000005 L 465.57 426.18700000000007 L 376.679 426.18700000000007 L 376.679 471.726 z M 0 426.186 L 26.99 426.186 L 0 399.196 L 0 426.186 z M 0 341.476 L 0 368.467 L 57.72 426.186 L 84.71 426.186 L 0 341.476 z M 128.934 426.186 L 128.934 412.691 L 64.467 348.224 L 13.494999999999997 297.252 L 0 297.252 L 0 310.747 L 64.467 375.214 L 115.439 426.186 L 128.934 426.186 z M 128.934 354.972 L 71.215 297.25199999999995 L 44.224 297.25199999999995 L 64.467 317.49499999999995 L 128.934 381.96199999999993 L 128.934 354.972 z M 128.934 324.243 L 128.934 297.252 L 101.943 297.252 L 128.934 324.243 z" stroke-linecap="round"></path></g><g transform="matrix(1 0 0 1 32.23 64.47)" id="12R3p9eui-1dtPfQ6Meb1"><path style="stroke: none; stroke-width: 1; stroke-dasharray: none; stroke-linecap: butt; stroke-dashoffset: 0; stroke-linejoin: miter; stroke-miterlimit: 4; fill: rgb(253,212,2); fill-rule: nonzero; opacity: 1;" vector-effect="non-scaling-stroke" transform=" translate(-332.23, -364.47)" d="M 64.467 168.318 L 64.467 297.252 L 71.214 297.252 L 128.933 354.972 L 128.933 381.962 L 64.466 317.495 L 64.466 348.224 L 128.933 412.691 L 128.933 426.186 L 115.43799999999999 426.186 L 64.46599999999998 375.214 L 64.46599999999998 405.943 L 84.70899999999997 426.186 L 64.467 426.186 L 287.788 555.12 L 287.788 297.252 L 64.467 168.318 z M 128.934 324.243 L 101.943 297.252 L 128.934 297.252 L 128.934 324.243 z M 600 426.186 L 600 471.72499999999997 L 511.109 471.72499999999997 L 511.109 560.616 L 465.57 560.616 L 465.57 471.72499999999997 L 376.679 471.72499999999997 L 376.679 426.186 L 465.57 426.186 L 465.57 337.29499999999996 L 511.109 337.29499999999996 L 511.109 426.186 L 600 426.186 z" stroke-linecap="round"></path></g><g transform="matrix(1 0 0 1 -12.21 -131.68)" id="16_ehkYWKKaHnjtgV7VXy"><path style="stroke: none; stroke-width: 1; stroke-dasharray: none; stroke-linecap: butt; stroke-dashoffset: 0; stroke-linejoin: miter; stroke-miterlimit: 4; fill: rgb(238,100,153); fill-rule: nonzero; opacity: 1;" vector-effect="non-scaling-stroke" transform=" translate(-287.79, -168.32)" d="M 511.109 168.318 L 287.788 39.38300000000001 L 64.46700000000001 168.318 L 287.788 297.252 z" stroke-linecap="round"></path></g></g></g><g transform="matrix(0.34 0 0 0.34 755.82 233.93)" id="fnPnYvWdPUo9qlOhSUjnn"><g vector-effect="non-scaling-stroke"><g transform="matrix(1 0 0 1 -0.22 -111.39)" id="fd0RfJw-VNUa-bbRoGjOn"><path style="stroke: none; stroke-width: 1; stroke-dasharray: none; stroke-linecap: butt; stroke-dashoffset: 0; stroke-linejoin: miter; stroke-miterlimit: 4; fill: rgb(89,206,234); fill-rule: nonzero; opacity: 1;" vector-effect="non-scaling-stroke" transform=" translate(-299.78, -188.61)" d="M 594.207 235.269 L 321.165 142.561 L 390.987 12.615000000000009 L 594.207 235.269 z M 5.344 364.603 L 148.051 312.47 L 321.16499999999996 142.56100000000004 L 96.557 77.283 L 5.344 364.603 z" stroke-linecap="round"></path></g><g transform="matrix(1 0 0 1 71.13 -23.95)" id="7PSnRzNOCPNaHT2aogiJo"><path style="stroke: none; stroke-width: 1; stroke-dasharray: none; stroke-linecap: butt; stroke-dashoffset: 0; stroke-linejoin: miter; stroke-miterlimit: 4; fill: rgb(231,50,163); fill-rule: nonzero; opacity: 1;" vector-effect="non-scaling-stroke" transform=" translate(-371.13, -276.05)" d="M 594.207 235.269 L 404.999 409.538 L 148.051 312.47 L 321.16499999999996 142.56100000000004 L 594.207 235.269 z" stroke-linecap="round"></path></g><g transform="matrix(1 0 0 1 71.13 111.26)" id="qLNHKyPiHIvpcAMpd-mmI"><path style="stroke: none; stroke-width: 1; stroke-dasharray: none; stroke-linecap: butt; stroke-dashoffset: 0; stroke-linejoin: miter; stroke-miterlimit: 4; fill: rgb(137,33,219); fill-rule: nonzero; opacity: 1;" vector-effect="non-scaling-stroke" transform=" translate(-371.13, -411.26)" d="M 208.565 587.255 L 148.051 312.47 L 404.99899999999997 409.538 L 208.565 587.255 z M 502.995 522.588 L 594.207 235.26899999999995 L 404.999 409.538 L 502.995 522.588 z" stroke-linecap="round"></path></g><g transform="matrix(1 0 0 1 55.78 198.4)" id="fMtV7INN9NtLlSg00B17A"><path style="stroke: none; stroke-width: 1; stroke-dasharray: none; stroke-linecap: butt; stroke-dashoffset: 0; stroke-linejoin: miter; stroke-miterlimit: 4; fill: rgb(175,229,90); fill-rule: nonzero; opacity: 1;" vector-effect="non-scaling-stroke" transform=" translate(-355.78, -498.4)" d="M 404.999 409.538 L 208.56500000000003 587.255 L 502.995 522.588 z" stroke-linecap="round"></path></g><g transform="matrix(1 0 0 1 -101.83 -0.07)" id="6X5ts7sAhlBIc13YKTYDz"><path style="stroke: none; stroke-width: 1; stroke-dasharray: none; stroke-linecap: butt; stroke-dashoffset: 0; stroke-linejoin: miter; stroke-miterlimit: 4; fill: rgb(255,255,1); fill-rule: nonzero; opacity: 1;" vector-effect="non-scaling-stroke" transform=" translate(-198.17, -299.93)" d="M 5.344 364.603 L 148.051 312.47 L 208.56599999999997 587.2550000000001 L 5.344 364.603 z M 390.987 12.614 L 96.557 77.283 L 321.165 142.56 L 390.987 12.614 z" stroke-linecap="round"></path></g><g transform="matrix(1 0 0 1 0 0)" id="bKqYTmh9CeG-4R6DA2lzk"><path style="stroke: none; stroke-width: 1; stroke-dasharray: none; stroke-linecap: butt; stroke-dashoffset: 0; stroke-linejoin: miter; stroke-miterlimit: 4; fill: rgb(29,26,28); fill-rule: nonzero; opacity: 1;" vector-effect="non-scaling-stroke" transform=" translate(-300, -300)" d="M 598.154 231.666 L 394.935 9.012 C 393.647 7.602 391.706 6.989000000000001 389.842 7.396000000000001 C 389.842 7.396000000000001 95.64299999999997 72.013 95.40699999999998 72.065 C 93.18899999999998 72.556 92.02699999999999 73.428 91.46399999999998 75.66799999999999 C 91.463 75.671 0.25 362.985 0.25 362.985 C -0.32699999999999996 364.80400000000003 0.10900000000000001 366.79400000000004 1.396 368.20500000000004 C 3.28 370.26800000000003 201.082 587.023 204.587 590.9350000000001 C 206.232 592.7710000000001 207.266 593.0160000000001 209.71099999999998 592.4730000000001 L 504.14099999999996 527.806 C 506.006 527.3960000000001 507.51099999999997 526.024 508.08799999999997 524.2040000000001 C 508.08799999999997 524.2040000000001 599.045 237.68500000000006 599.299 236.88700000000006 C 599.6279999999999 235.85300000000007 599.539 234.81400000000005 599.999 233.94100000000006 C 599.023 233.389 598.913 232.498 598.154 231.666 z M 390.598 20.113 L 579.2470000000001 226.803 L 325.78200000000004 140.742 L 390.598 20.113 z M 360.834 61.96 L 287.044 40.916 L 322.211 33.190999999999995 L 369.107 46.56399999999999 L 360.834 61.96 z M 357.727 67.742 L 348.036 85.777 L 232.63 52.867 L 274.344 43.705 L 274.277 43.942 L 357.727 67.742 z M 344.929 91.56 L 334.66999999999996 110.652 L 175.809 65.348 L 219.424 55.768 L 344.929 91.56 z M 372.213 40.783 L 335.418 30.291 L 383.528 19.724 L 372.213 40.783 z M 165.114 67.696 L 164.78 68.869 L 331.56399999999996 116.432 L 319.568 138.756 L 113.823 78.962 L 165.114 67.696 z M 399.964 404.21 L 153.878 311.243 L 319.67499999999995 148.515 L 399.964 404.21 z M 315.009 144.11 L 150.072 305.994 L 100.846 81.869 L 315.009 144.11 z M 96.909 93.833 L 144.46800000000002 310.365 L 12.91 358.425 L 96.909 93.833 z M 47.617 352.572 L 62.396 419.183 L 42.833 397.75 L 33.919 357.575 L 47.617 352.572 z M 53.692 350.353 L 67.387 345.35 L 90.633 450.12100000000004 L 71.073 428.69 L 53.692 350.353 z M 73.463 343.131 L 87.15799999999999 338.12699999999995 L 118.87499999999999 481.06199999999995 L 99.31199999999998 459.62799999999993 L 73.463 343.131 z M 93.234 335.908 L 106.929 330.904 L 147.111 511.998 L 127.55199999999999 490.568 L 93.234 335.908 z M 113.005 328.685 L 125.821 324.003 L 174.093 541.56 L 155.78799999999998 521.505 L 113.005 328.685 z M 27.844 359.795 L 34.157000000000004 388.245 L 13.104 365.18 L 27.844 359.795 z M 182.77 551.066 L 131.89600000000002 321.784 L 145.85500000000002 316.68399999999997 L 201.949 572.079 L 182.77 551.066 z M 152.627 317.626 L 397.76 410.231 L 210.505 581.144 L 152.627 317.626 z M 222.72 578.675 L 403.969 413.24499999999995 L 495.448 518.7739999999999 L 222.72 578.675 z M 500.029 514.271 L 408.706 408.92099999999994 L 584.374 248.58399999999995 L 500.029 514.271 z M 406.166 402.559 L 326.116 147.62700000000004 L 588.037 236.56000000000006 L 406.166 402.559 z" stroke-linecap="round"></path></g></g></g><g transform="matrix(0.53 0 0 0.53 326.83 511.67)" id="UVCzg7IzqyruhhoZX9qcM"><path style="stroke: none; stroke-width: 1; stroke-dasharray: none; stroke-linecap: butt; stroke-dashoffset: 0; stroke-linejoin: miter; stroke-miterlimit: 4; fill: rgb(179,181,179); fill-rule: nonzero; opacity: 1;" vector-effect="non-scaling-stroke" transform=" translate(-40, -40)" d="M 63.366 80 L 40 56.634 L 16.634 80 L 0 63.366 L 23.366 40 L 0 16.634 L 16.634 0 L 40 23.366 L 63.366 0 L 80 16.634 L 56.634 40 L 80 63.366 L 63.366 80 z" stroke-linecap="round"></path></g><g transform="matrix(0.53 0 0 0.53 305.16 468.3)" id="6lVwvYIsxD8byT1ym63gU"><path style="stroke: none; stroke-width: 1; stroke-dasharray: none; stroke-linecap: butt; stroke-dashoffset: 0; stroke-linejoin: miter; stroke-miterlimit: 4; fill: rgb(179,181,179); fill-rule: nonzero; opacity: 1;" vector-effect="non-scaling-stroke" transform=" translate(-40, -40)" d="M 63.366 80 L 40 56.634 L 16.634 80 L 0 63.366 L 23.366 40 L 0 16.634 L 16.634 0 L 40 23.366 L 63.366 0 L 80 16.634 L 56.634 40 L 80 63.366 L 63.366 80 z" stroke-linecap="round"></path></g><g transform="matrix(0.53 0 0 0.53 283.46 421.75)" id="Y-MIg8dUmSO7BL5S2ewYS"><path style="stroke: none; stroke-width: 1; stroke-dasharray: none; stroke-linecap: butt; stroke-dashoffset: 0; stroke-linejoin: miter; stroke-miterlimit: 4; fill: rgb(179,181,179); fill-rule: nonzero; opacity: 1;" vector-effect="non-scaling-stroke" transform=" translate(-40, -40)" d="M 63.366 80 L 40 56.634 L 16.634 80 L 0 63.366 L 23.366 40 L 0 16.634 L 16.634 0 L 40 23.366 L 63.366 0 L 80 16.634 L 56.634 40 L 80 63.366 L 63.366 80 z" stroke-linecap="round"></path></g><g transform="matrix(0.46 0 0 0.46 1083.54 471.27)" id="zEdsLYTMoDTMJ5QKCaAXC"><path style="stroke: none; stroke-width: 1; stroke-dasharray: none; stroke-linecap: butt; stroke-dashoffset: 0; stroke-linejoin: miter; stroke-miterlimit: 4; fill: rgb(179,181,179); fill-rule: nonzero; opacity: 1;" vector-effect="non-scaling-stroke" transform=" translate(-40, -40)" d="M 63.366 80 L 40 56.634 L 16.634 80 L 0 63.366 L 23.366 40 L 0 16.634 L 16.634 0 L 40 23.366 L 63.366 0 L 80 16.634 L 56.634 40 L 80 63.366 L 63.366 80 z" stroke-linecap="round"></path></g><g transform="matrix(1 0 0 1 750.98 416.24)" style="filter: url(#SVGID_256);" id="WinFyF3mSfJMXhShVo44m"><filter id="SVGID_256" y="-48%" height="196%" x="-24%" width="148%"><feGaussianBlur in="SourceAlpha" stdDeviation="6.5"></feGaussianBlur><feOffset dx="12" dy="20" result="oBlur"></feOffset><feFlood flood-color="rgb(162,191,254)" flood-opacity="1"></feFlood><feComposite in2="oBlur" operator="in"></feComposite><feMerge><feMergeNode></feMergeNode><feMergeNode in="SourceGraphic"></feMergeNode></feMerge></filter><text xml:space="preserve" font-family="Open Sans" font-size="128" font-style="italic" font-weight="800" style="stroke: rgb(0,0,0); stroke-width: 1; stroke-dasharray: none; stroke-linecap: butt; stroke-dashoffset: 0; stroke-linejoin: miter; stroke-miterlimit: 4; fill: rgb(1,101,252); fill-rule: nonzero; opacity: 1; white-space: pre;"><tspan x="-331.75" y="53.53">front end</tspan></text><style>
          @font-face {
          font-family: "Open Sans";
          font-weight: 800;
          src: '';
          }
        </style></g></svg>